<svg xmlns="http://www.w3.org/2000/svg" viewBox="0 0 182.04 32.86"><defs><style>.cls-1{fill:none;stroke:#000;stroke-miterlimit:10;}.cls-2{font-size:17.48px;font-family:HiraginoSans-W0-83pv-RKSJ-H, Hiragino Sans;}</style></defs><g id="レイヤー_2" data-name="レイヤー 2"><g id="レイヤー_1-2" data-name="レイヤー 1"><path class="cls-1" d="M.5,1.62v0Z"/><path class="cls-1" d="M27.63,7.19.5,1.62Z"/><path class="cls-1" d="M1.06,14.74,27.63,7.19Z"/><line class="cls-1" x1="27.63" y1="27.48" x2="0.97" y2="14.74"/><line class="cls-1" x1="36.99" y1="13.16" x2="36.99" y2="28.28"/><ellipse class="cls-1" cx="36.52" cy="8.79" rx="1.4" ry="1.59"/><polyline class="cls-1" points="48.22 0.03 50.09 27.88 70.67 4.01"/><line class="cls-1" x1="71.6" y1="27.09" x2="59.69" y2="16.95"/><path class="cls-1" d="M80,10.38a10.11,10.11,0,0,0-1.87,4.77C77.66,20,81.08,27.23,88.44,27.88c7,.62,13-5,13.1-10.34a9.41,9.41,0,0,0-2.8-6.37"/><text class="cls-2" transform="translate(109.69 28) scale(1.51 1)">page</text></g></g></svg>